	<svg width="117" height="79" viewBox="0 0 87 49" fill="none" xmlns="http://www.w3.org/2000/svg">
				<path fill-rule="evenodd" clip-rule="evenodd"
					d="M13.9118 11.499H19.8079C19.9591 10.8187 20.0347 9.98722 20.1102 9.00455C20.1858 7.98407 20.2236 7.07699 20.2236 6.24549C20.2236 4.96045 19.8457 3.7888 19.1654 2.69274C18.4472 1.55888 17.578 1.02974 16.5953 1.02974C15.4236 1.02974 14.441 1.25652 13.6095 1.74785C13.0803 2.08801 12.589 2.54156 12.1354 3.14628C12.0976 3.18407 12.0221 3.33526 11.9465 3.56203C11.8331 3.7888 11.7953 3.90219 11.7953 3.97778C11.7953 4.39352 11.9843 4.5825 12.3244 4.5825C12.5512 4.5825 12.7024 4.69589 12.8535 4.92266C12.9669 5.14943 13.0425 5.33841 13.0425 5.52738C13.0425 6.09431 12.8158 6.54785 12.3244 6.88801C11.8331 7.26596 11.3417 7.45494 10.8126 7.45494C10.2835 7.45494 9.94331 7.26596 9.71654 6.92581C9.48977 6.58565 9.37638 6.1699 9.37638 5.71636C9.37638 4.31793 10.0567 3.10848 11.4551 2.08801C12.9669 1.02974 14.8567 0.50061 17.2 0.50061C18.7118 0.50061 19.9969 1.10533 20.9795 2.27699C21.9622 3.48644 22.4535 5.22502 22.4535 7.53053C22.4535 12.4439 20.9795 16.677 18.0315 20.1542C15.1213 23.6313 11.5685 25.3699 7.41103 25.3699C5.2567 25.3699 3.55591 24.8786 2.30867 23.8581C1.17481 22.951 0.60788 21.8171 0.60788 20.4565C0.60788 17.8486 1.59056 15.7699 3.59371 14.1447C5.2189 12.8219 6.95749 12.1794 8.80945 12.1794C10.3213 12.1794 11.5307 12.5195 12.4 13.1998C13.2315 13.8423 13.685 14.7116 13.685 15.7699C13.685 17.5463 13.0047 19.0203 11.7197 20.2675C10.5102 21.3636 9.07402 22.0439 7.33544 22.3463C7.25985 22.3841 7.18426 22.3085 7.10867 22.1951C7.03308 22.0439 7.03308 21.9305 7.14646 21.8927C8.4693 21.2124 9.52756 20.4187 10.3213 19.4738C11.1906 18.4156 11.6441 17.2439 11.6441 15.9589C11.6441 14.9006 11.4173 14.1069 10.926 13.54C10.4724 12.9731 9.82993 12.7085 8.96064 12.7085C7.29764 12.7085 5.82363 13.4644 4.53859 14.9762C3.29134 16.488 2.64882 18.2266 2.64882 20.1164C2.64882 21.5148 2.91339 22.6108 3.44253 23.3668C4.16064 24.3494 5.29449 24.8408 6.8819 24.8408C9.90552 24.8408 12.589 23.6691 14.8945 21.3636C17.2378 19.0581 18.8252 15.9967 19.6567 12.1794H13.9118V11.499Z"
					fill="#2B2A29"></path>
				<path fill-rule="evenodd" clip-rule="evenodd"
					d="M28.3874 19.9275L30.1638 14.4472C30.2772 14.1448 30.3528 13.9181 30.3528 13.8425C30.3906 13.7291 30.3906 13.6157 30.3906 13.5401C30.3906 13.3134 30.315 13.1622 30.2016 13.0866C30.0504 12.9732 29.8236 12.9354 29.5213 12.9354H28.9921C28.463 12.9354 28.0851 12.9732 27.8583 13.0866C27.6315 13.1622 27.4803 13.4267 27.3292 13.8047C27.1024 14.5606 26.7244 15.4677 26.2331 16.6015C25.7418 17.7354 25.326 18.6425 24.9858 19.3228C24.0788 21.0992 23.2473 22.3842 22.4914 23.1401C21.6977 23.9338 20.904 24.3118 20.0347 24.3118C19.5433 24.3118 19.1276 24.1606 18.7874 23.896C18.4473 23.6315 18.2961 23.2535 18.2961 22.7244C18.2961 22.3842 18.4095 22.1197 18.5984 21.8929C18.8252 21.6661 19.0898 21.5527 19.4677 21.5527C19.7323 21.5527 19.9213 21.6283 20.0725 21.7417C20.2236 21.8929 20.3748 22.1197 20.4882 22.4598C20.5638 22.7622 20.6772 22.9511 20.7528 23.0645C20.8284 23.1779 20.9418 23.2157 21.0551 23.2157C21.5087 23.2157 22.1512 22.5732 22.9827 21.326C23.7764 20.0409 24.6079 18.3401 25.4394 16.2236C25.704 15.5055 25.8929 14.9386 26.0441 14.5228C26.1575 14.1071 26.2331 13.8047 26.2331 13.5779C26.2331 13.3511 26.1575 13.2 26.0441 13.0866C25.9685 12.9732 25.704 12.8976 25.2882 12.8976L24.5701 12.8598C24.4189 12.8598 24.3055 12.822 24.2299 12.7842C24.1543 12.7464 24.1543 12.633 24.1543 12.5197C24.1543 12.4063 24.1543 12.3307 24.2299 12.2551C24.3055 12.2173 24.4567 12.1795 24.7213 12.1795H31.3732C31.9402 12.1795 32.3181 12.2551 32.5827 12.4063C32.8473 12.5574 32.9606 12.822 32.9606 13.1622C32.9606 13.2756 32.9606 13.4267 32.9229 13.6535C32.8851 13.8803 32.8095 14.1071 32.7339 14.3716L30.6929 20.759C30.4284 21.5905 30.315 21.9685 30.315 21.9685C30.315 21.9685 30.315 22.0441 30.315 22.1574C30.315 22.3086 30.315 22.3842 30.3906 22.4598C30.4662 22.5354 30.5418 22.5732 30.6173 22.5732C30.8441 22.5732 31.1465 22.3464 31.6 21.9685C32.0536 21.5527 32.3937 21.137 32.6961 20.7212L33.0362 20.2299C33.1118 20.1543 33.1496 20.0787 33.2252 20.0409C33.3008 20.0031 33.3386 19.9653 33.4142 19.9653C33.4898 19.9653 33.5276 20.0031 33.5654 20.0409C33.6032 20.0787 33.641 20.1543 33.641 20.2299C33.641 20.3055 33.6032 20.3811 33.5654 20.4945C33.5654 20.57 33.452 20.7212 33.3008 20.948C32.5449 22.0441 31.789 22.8756 31.0331 23.4425C30.2394 24.0094 29.5213 24.3118 28.8788 24.3118C28.5008 24.3118 28.1606 24.1984 27.9339 23.9338C27.7071 23.7071 27.5559 23.3669 27.5559 22.9134C27.5559 22.7244 27.5937 22.5354 27.6693 22.2708C27.7449 22.0063 27.9717 21.2504 28.3874 19.9275ZM48.3433 12.633L46.2268 19.096C45.9622 19.8897 45.7732 20.57 45.6599 21.0236C45.5087 21.5149 45.4331 21.8929 45.4331 22.1574C45.4331 22.3086 45.4709 22.4598 45.5465 22.4976C45.5843 22.5732 45.6599 22.611 45.7355 22.611C45.9622 22.611 46.2646 22.4598 46.6047 22.1574C46.9827 21.8929 47.3229 21.5149 47.7008 21.0614L48.1921 20.3811C48.3055 20.2299 48.3811 20.1165 48.4567 20.0787C48.4945 20.0409 48.5701 20.0031 48.6079 20.0031C48.6835 20.0031 48.7591 20.0409 48.7969 20.0787C48.8347 20.1165 48.8347 20.1921 48.8347 20.2677C48.8347 20.3433 48.8347 20.4189 48.7969 20.5323C48.7213 20.6078 48.6457 20.759 48.5323 20.948C47.5874 22.1574 46.7181 23.0267 45.9244 23.5181C45.1307 24.0472 44.3748 24.3118 43.6567 24.3118C43.3543 24.3118 43.1276 24.2362 42.9764 24.0472C42.7874 23.8582 42.7118 23.5937 42.7118 23.2535C42.7118 22.8756 42.8252 22.3086 43.0142 21.5905C43.2032 20.8724 43.5055 19.9653 43.8457 18.9448L44.2992 17.7354H44.2236C43.2032 19.5496 41.9181 21.0992 40.4063 22.3842C38.8945 23.6693 37.5339 24.3118 36.4 24.3118C35.9087 24.3118 35.5307 24.1606 35.304 23.896C35.0394 23.6315 34.926 23.2157 34.926 22.7244C34.926 22.3842 34.9638 21.9307 35.115 21.4393C35.2662 20.9102 35.4551 20.3055 35.7575 19.5496L37.3827 15.4677C37.5717 14.9763 37.7229 14.5984 37.7984 14.3338C37.874 14.0693 37.9496 13.8425 37.9496 13.6913C37.9496 13.5779 37.9118 13.5023 37.874 13.4267C37.8362 13.3511 37.7606 13.3511 37.6473 13.3511C37.3827 13.3511 37.0803 13.5023 36.7024 13.8803C36.3244 14.2204 35.8709 14.7496 35.3418 15.4677C35.2662 15.5811 35.1906 15.6567 35.115 15.6945C35.0772 15.6945 35.0016 15.7323 34.9638 15.7323C34.8882 15.7323 34.8126 15.6945 34.7748 15.6567C34.737 15.5811 34.6992 15.5055 34.6992 15.4299C34.6992 15.3165 34.737 15.2031 34.8126 15.0897C34.926 14.9386 35.0394 14.7496 35.2662 14.485C35.9087 13.6157 36.6268 12.9354 37.3827 12.4441C38.1764 11.9527 38.8567 11.726 39.4614 11.726C39.8394 11.726 40.104 11.8015 40.2929 12.0283C40.4819 12.2551 40.5575 12.5952 40.5575 13.0866C40.5575 13.2756 40.5575 13.5023 40.4819 13.7291C40.4441 13.9559 40.2551 14.485 39.9528 15.3165L37.9874 20.6456C37.874 20.948 37.7984 21.2126 37.7229 21.4393C37.6851 21.6661 37.6473 21.8551 37.6473 22.0441C37.6473 22.233 37.6851 22.3842 37.7606 22.4976C37.874 22.5732 37.9874 22.611 38.1764 22.611C38.441 22.611 38.7433 22.5354 39.0835 22.3086C39.4614 22.1197 39.915 21.7795 40.4819 21.326C41.5024 20.4945 42.4851 19.3228 43.4677 17.8488C44.4504 16.4126 45.1685 14.9386 45.6221 13.5023L45.8488 12.6708C45.9244 12.4819 46 12.3685 46.1134 12.2929C46.189 12.2173 46.3402 12.1795 46.5669 12.1795H48.1166C48.2299 12.1795 48.3433 12.2173 48.3811 12.2551C48.4189 12.3307 48.4189 12.4441 48.3433 12.633ZM50.1197 23.2157L51.6693 18.5669C52.3496 16.4126 52.7654 15.1275 52.841 14.7118C52.9543 14.3338 52.9921 13.9937 52.9921 13.7669C52.9921 13.6157 52.9543 13.5023 52.9166 13.4645C52.8788 13.4267 52.841 13.3889 52.7276 13.3889C52.5008 13.3889 52.1984 13.5779 51.7827 13.9559C51.3669 14.296 50.9512 14.7874 50.4977 15.3921C50.3843 15.5433 50.2709 15.6567 50.1953 15.6945C50.1575 15.7323 50.0819 15.77 50.0063 15.77C49.9307 15.77 49.8929 15.7323 49.8173 15.6945C49.7795 15.6189 49.7418 15.5433 49.7418 15.4299C49.7418 15.3543 49.7795 15.2409 49.8929 15.0897C49.9685 14.9763 50.1197 14.7874 50.3087 14.5606C50.9134 13.8425 51.6315 13.2 52.463 12.5952C53.2945 11.9905 53.9748 11.726 54.5418 11.726C54.8819 11.726 55.1465 11.8015 55.3355 11.9905C55.5244 12.1795 55.6 12.4819 55.6 12.8598C55.6 13.2 55.5244 13.6535 55.411 14.2582C55.2599 14.863 55.0709 15.6567 54.7685 16.6393L54.3906 17.7732H54.4284C54.9197 16.8283 55.4866 15.959 56.1292 15.1275C56.7717 14.296 57.4142 13.5779 58.0945 13.011C58.548 12.5952 59.0016 12.2551 59.4929 12.0661C59.9465 11.8015 60.4 11.726 60.8536 11.726C61.3449 11.726 61.7606 11.8771 62.063 12.2173C62.3654 12.5197 62.5543 13.011 62.5543 13.6913C62.5543 14.0693 62.4788 14.5606 62.3654 15.1653C62.2142 15.77 62.0252 16.4126 61.8362 17.1307L61.5717 17.9622H61.6095C62.7433 15.9212 63.915 14.3716 65.0866 13.3134C66.2583 12.2551 67.3921 11.726 68.526 11.726C69.0173 11.726 69.4709 11.8771 69.811 12.1795C70.1134 12.5197 70.3024 12.9732 70.3024 13.6157C70.3024 13.9559 70.2268 14.3338 70.1134 14.7496C70 15.1653 69.7732 15.8078 69.4331 16.7149L67.8079 20.759C67.6945 21.0236 67.5811 21.326 67.5055 21.6283C67.4299 21.9307 67.3921 22.1574 67.3921 22.3086C67.3921 22.4598 67.3921 22.5354 67.4677 22.611C67.5055 22.6866 67.5811 22.7244 67.6945 22.7244C67.9213 22.7244 68.2992 22.4976 68.7528 22.0441C69.2441 21.5905 69.6599 21.0992 70.0756 20.5323C70.189 20.3811 70.3024 20.2677 70.378 20.1921C70.4158 20.1543 70.4914 20.1165 70.5669 20.1165C70.6803 20.1165 70.7181 20.1543 70.7559 20.1921C70.7937 20.2299 70.8315 20.2677 70.8315 20.3433C70.8315 20.4945 70.7937 20.6078 70.7181 20.759C70.6803 20.8724 70.5292 21.0614 70.3402 21.326C69.5087 22.3464 68.7528 23.1023 67.9969 23.5937C67.2788 24.0472 66.5606 24.3118 65.8803 24.3118C65.5024 24.3118 65.2 24.1984 64.9732 23.9716C64.7465 23.7448 64.6331 23.4425 64.6331 23.0267C64.6331 22.7622 64.6331 22.4598 64.7087 22.1574C64.7843 21.8173 65.011 21.2504 65.3134 20.4189L67.0898 15.7323C67.2788 15.2409 67.4299 14.863 67.5055 14.5606C67.5811 14.296 67.6189 14.0315 67.6189 13.8803C67.6189 13.6157 67.5811 13.4267 67.4677 13.3134C67.3543 13.2 67.1654 13.1244 66.9764 13.1244C66.674 13.1244 66.3339 13.2756 65.9181 13.5779C65.5402 13.8425 65.1244 14.2204 64.6709 14.7118C63.8772 15.6189 63.0835 16.7905 62.252 18.2267C61.4205 19.663 60.778 21.0236 60.2866 22.3086L59.8709 23.4047C59.7953 23.6315 59.6819 23.7448 59.6063 23.7826C59.4929 23.8204 59.3795 23.8582 59.1906 23.8582H57.6788C57.5276 23.8582 57.4142 23.8204 57.3764 23.7826C57.3008 23.7448 57.3008 23.7071 57.3008 23.6315C57.3008 23.5559 57.3008 23.5181 57.3008 23.4425C57.3386 23.3669 57.3764 23.2535 57.4142 23.1401L58.5103 19.8141C59.1528 17.9244 59.5685 16.5637 59.7575 15.7323C59.9843 14.9386 60.0977 14.3338 60.0977 13.9181C60.0977 13.6535 60.0221 13.4267 59.9465 13.3134C59.8331 13.1622 59.6819 13.0866 59.4929 13.0866C59.2662 13.0866 58.9638 13.2378 58.5858 13.5023C58.2457 13.7291 57.8677 14.1071 57.452 14.5606C56.5827 15.5433 55.789 16.6015 55.0709 17.8488C54.3528 19.0582 53.6347 20.6456 52.9166 22.5732L52.5764 23.4425C52.5386 23.5937 52.463 23.7071 52.4252 23.7448C52.3496 23.8204 52.1984 23.8582 51.9717 23.8582H50.4599C50.2709 23.8582 50.1197 23.8204 50.0819 23.7071C50.0441 23.5937 50.0441 23.4425 50.1197 23.2157ZM80.8851 19.285L81.3764 17.8488H81.263C80.0914 19.7386 78.8063 21.2882 77.4457 22.4976C76.0473 23.7071 74.8378 24.3118 73.8173 24.3118C73.0992 24.3118 72.5323 24.0472 72.1543 23.5937C71.8142 23.1023 71.6252 22.422 71.6252 21.5905C71.6252 19.3984 72.6079 17.2819 74.5355 15.2031C76.5008 13.0866 78.5418 12.0661 80.6961 12.0661C80.9984 12.0661 81.3008 12.0661 81.5276 12.1417C81.7543 12.1795 82.0189 12.2929 82.3591 12.4819C82.548 12.5952 82.6614 12.633 82.6992 12.633C82.737 12.633 82.7748 12.6708 82.7748 12.6708C82.8126 12.6708 82.8504 12.633 82.8882 12.633C82.926 12.5952 83.0016 12.5197 83.115 12.3307C83.304 11.9905 83.4551 11.8015 83.5307 11.7637C83.6063 11.726 83.7197 11.726 83.8709 11.726H85.2315C85.3449 11.726 85.4205 11.726 85.4961 11.8015C85.5339 11.8771 85.5717 11.9905 85.5717 12.1039C85.5717 12.1417 85.5717 12.2551 85.5339 12.3307C85.4961 12.4441 85.4583 12.5952 85.3827 12.822L84.0221 17.0929C83.4173 18.8693 83.0394 20.0409 82.8882 20.6078C82.737 21.137 82.6614 21.5527 82.6614 21.8551C82.6614 22.0063 82.6992 22.1197 82.737 22.1952C82.8126 22.2708 82.8882 22.2708 83.0016 22.2708C83.1528 22.2708 83.4173 22.1574 83.6819 21.8929C83.9465 21.6661 84.2866 21.2882 84.6268 20.7968L85.1937 20.0031C85.2693 19.9275 85.3071 19.8897 85.3449 19.8519C85.3827 19.8519 85.4205 19.8141 85.4583 19.8141C85.5717 19.8141 85.6095 19.8519 85.6473 19.8897C85.6851 19.9653 85.7229 20.0409 85.7229 20.1165C85.7229 20.1921 85.7229 20.2677 85.6851 20.3433C85.6473 20.4189 85.5339 20.6078 85.3827 20.8346C84.7024 21.8551 83.9465 22.6866 83.0772 23.3291C82.2079 23.9716 81.452 24.3118 80.7717 24.3118C80.4693 24.3118 80.2425 24.2362 80.1292 24.0472C79.978 23.896 79.9024 23.6315 79.9024 23.3291C79.9024 22.9511 79.978 22.4598 80.1292 21.7795C80.2803 21.137 80.5449 20.3055 80.8851 19.285ZM74.3087 21.4015C74.3087 21.8173 74.3843 22.1197 74.5732 22.3086C74.7244 22.4976 74.989 22.611 75.3669 22.611C75.7827 22.611 76.274 22.3842 76.8788 21.9685C77.4835 21.5149 78.2016 20.7968 79.0331 19.7763C79.9402 18.6803 80.7717 17.5464 81.452 16.4504C82.1323 15.3165 82.4725 14.485 82.4725 13.9559C82.4725 13.5779 82.3213 13.3134 82.0567 13.0866C81.8299 12.8598 81.4898 12.7464 81.1496 12.7464C79.6 12.7464 78.0504 13.7669 76.5764 15.8456C75.0646 17.9244 74.3087 19.7763 74.3087 21.4015Z"
					fill="#2B2A29"></path>
				<path fill-rule="evenodd" clip-rule="evenodd" d="M1.47717 27.6754H86.6677V38.2203H1.47717V27.6754Z"
					fill="#E31E24"></path>
				<path fill-rule="evenodd" clip-rule="evenodd"
					d="M11.5307 35.6503H10.3213V31.3416H8.5449V35.6503H7.33545V30.2833H11.5307V35.6503ZM26.2709 35.6503H25.0236V30.2833H26.9134C27.5181 30.2833 28.0095 30.3967 28.3496 30.6991C28.6898 31.0392 28.8788 31.4928 28.8788 32.0597C28.8788 32.6644 28.6898 33.118 28.3118 33.4203C27.9339 33.6849 27.4803 33.8361 26.8378 33.8361H26.2709V35.6503ZM26.2709 31.3416V32.74H26.8C27.4047 32.74 27.7071 32.5132 27.7071 32.0597C27.7071 31.5684 27.4047 31.3416 26.8 31.3416H26.2709ZM46.5291 35.6503H45.3197V32.3243L43.052 35.6503H42.0315V30.2833H43.241V33.5715L45.5087 30.2833H46.5291V35.6503ZM64.3307 35.6503H63.1213V33.4203H61.2315V35.6503H60.0221V30.2833H61.2315V32.3621H63.1213V30.2833H64.3307V35.6503ZM80.8095 31.3416H79.7512V35.6503H78.5417V31.3416H77.4835V30.2833H80.8095V31.3416Z"
					fill="#FEFEFE"></path>
				<path fill-rule="evenodd" clip-rule="evenodd"
					d="M5.06771 43.2471H3.63149V48.3116H2.95117V43.2471H1.51495V42.5667H5.06771V43.2471ZM14.1764 48.3116H13.4583V44.2297L9.86771 48.425V42.5667H10.5858V46.6486L14.1764 42.4534V48.3116ZM23.5118 48.3116H22.7937V43.2471H20.1102V48.3116H19.3921V42.5667H23.5118V48.3116ZM34.4724 45.4392C34.4724 46.2329 34.1701 46.951 33.5653 47.5557C32.9984 48.1226 32.2803 48.425 31.4488 48.425C30.6551 48.425 29.937 48.1226 29.3323 47.5557C28.7653 46.951 28.463 46.2329 28.463 45.4392C28.463 44.6455 28.7653 43.9274 29.3323 43.3226C29.937 42.7557 30.6551 42.4534 31.4488 42.4534C32.2803 42.4534 32.9984 42.7557 33.5653 43.3226C34.1701 43.9274 34.4724 44.6455 34.4724 45.4392ZM33.7543 45.4392C33.7543 44.7967 33.5276 44.2297 33.074 43.7762C32.6583 43.3604 32.0913 43.1337 31.4488 43.1337C30.8063 43.1337 30.2772 43.3604 29.8236 43.7762C29.4079 44.2297 29.1811 44.7967 29.1811 45.4392C29.1811 46.0817 29.4079 46.6486 29.8236 47.1022C30.2772 47.5557 30.8063 47.7447 31.4488 47.7447C32.0913 47.7447 32.6583 47.5557 33.074 47.1022C33.5276 46.6486 33.7543 46.0817 33.7543 45.4392ZM42.1449 43.2471H40.1417V48.3116H39.4236V42.5667H42.1449V43.2471ZM50.1197 44.1919C50.1197 44.7211 49.9307 45.1746 49.5905 45.4392C49.2504 45.7415 48.759 45.8927 48.1165 45.8927H47.7008V48.3116H46.9827V42.5667H47.9276C49.3638 42.5667 50.1197 43.1337 50.1197 44.1919ZM49.4394 44.2297C49.4394 43.5494 48.948 43.2093 47.9276 43.2093H47.7008V45.2502H48.0031C48.948 45.2502 49.4394 44.91 49.4394 44.2297ZM59.4173 48.3116H58.6614L58.0189 46.8754H55.3732L54.7307 48.3116H53.937L56.6961 42.34L59.4173 48.3116ZM57.7165 46.2329L56.6961 43.8896L55.6756 46.2329H57.7165ZM69.0551 45.288C69.0551 45.8927 68.8661 46.3841 68.4882 46.7998C68.0724 47.2156 67.5433 47.4045 66.8252 47.4045H66.5606V48.3116H65.8425V47.4045H65.6157C64.8976 47.4045 64.3307 47.2156 63.9527 46.7998C63.5748 46.3841 63.3858 45.8927 63.3858 45.288C63.3858 44.6833 63.5748 44.1541 63.9527 43.7762C64.3307 43.3604 64.8976 43.1337 65.6157 43.1337H65.8425V42.4534H66.5606V43.1337H66.8252C67.5433 43.1337 68.0724 43.3604 68.4882 43.7762C68.8661 44.1541 69.0551 44.6833 69.0551 45.288ZM68.2992 45.288C68.2992 44.3053 67.8079 43.814 66.7874 43.814H66.5606V46.762H66.7874C67.8079 46.762 68.2992 46.2707 68.2992 45.288ZM65.8425 46.762V43.814H65.6535C64.6331 43.814 64.1039 44.3053 64.1039 45.288C64.1039 46.2707 64.6331 46.762 65.6535 46.762H65.8425ZM78.2772 48.3116H77.5968V44.2297L73.9685 48.425V42.5667H74.6866V46.6486L78.2772 42.4534V48.3116ZM86.6677 48.3116H85.9496V45.8927H85.6472L83.9464 48.3116H83.0772L84.8913 45.8171C84.4756 45.7415 84.1354 45.5904 83.8709 45.3258C83.6063 45.0612 83.4929 44.7211 83.4929 44.3053C83.4929 43.7762 83.6441 43.3604 83.9842 43.0581C84.3622 42.7179 84.8535 42.5667 85.4583 42.5667H86.6677V48.3116ZM85.9496 45.288V43.2471H85.5339C84.6268 43.2471 84.211 43.5872 84.211 44.2297C84.211 44.9478 84.6646 45.288 85.6472 45.288H85.9496Z"
					stroke="#FEFEFE" stroke-width="0.288"></path>
				<path fill-rule="evenodd" clip-rule="evenodd"
					d="M5.06771 43.2471H3.63149V48.3116H2.95117V43.2471H1.51495V42.5667H5.06771V43.2471ZM14.1764 48.3116H13.4583V44.2297L9.86771 48.425V42.5667H10.5858V46.6486L14.1764 42.4534V48.3116ZM23.5118 48.3116H22.7937V43.2471H20.1102V48.3116H19.3921V42.5667H23.5118V48.3116ZM34.4724 45.4392C34.4724 46.2329 34.1701 46.951 33.5653 47.5557C32.9984 48.1226 32.2803 48.425 31.4488 48.425C30.6551 48.425 29.937 48.1226 29.3323 47.5557C28.7653 46.951 28.463 46.2329 28.463 45.4392C28.463 44.6455 28.7653 43.9274 29.3323 43.3226C29.937 42.7557 30.6551 42.4534 31.4488 42.4534C32.2803 42.4534 32.9984 42.7557 33.5653 43.3226C34.1701 43.9274 34.4724 44.6455 34.4724 45.4392ZM33.7543 45.4392C33.7543 44.7967 33.5276 44.2297 33.074 43.7762C32.6583 43.3604 32.0913 43.1337 31.4488 43.1337C30.8063 43.1337 30.2772 43.3604 29.8236 43.7762C29.4079 44.2297 29.1811 44.7967 29.1811 45.4392C29.1811 46.0817 29.4079 46.6486 29.8236 47.1022C30.2772 47.5557 30.8063 47.7447 31.4488 47.7447C32.0913 47.7447 32.6583 47.5557 33.074 47.1022C33.5276 46.6486 33.7543 46.0817 33.7543 45.4392ZM42.1449 43.2471H40.1417V48.3116H39.4236V42.5667H42.1449V43.2471ZM50.1197 44.1919C50.1197 44.7211 49.9307 45.1746 49.5905 45.4392C49.2504 45.7415 48.759 45.8927 48.1165 45.8927H47.7008V48.3116H46.9827V42.5667H47.9276C49.3638 42.5667 50.1197 43.1337 50.1197 44.1919ZM49.4394 44.2297C49.4394 43.5494 48.948 43.2093 47.9276 43.2093H47.7008V45.2502H48.0031C48.948 45.2502 49.4394 44.91 49.4394 44.2297ZM59.4173 48.3116H58.6614L58.0189 46.8754H55.3732L54.7307 48.3116H53.937L56.6961 42.34L59.4173 48.3116ZM57.7165 46.2329L56.6961 43.8896L55.6756 46.2329H57.7165ZM69.0551 45.288C69.0551 45.8927 68.8661 46.3841 68.4882 46.7998C68.0724 47.2156 67.5433 47.4045 66.8252 47.4045H66.5606V48.3116H65.8425V47.4045H65.6157C64.8976 47.4045 64.3307 47.2156 63.9527 46.7998C63.5748 46.3841 63.3858 45.8927 63.3858 45.288C63.3858 44.6833 63.5748 44.1541 63.9527 43.7762C64.3307 43.3604 64.8976 43.1337 65.6157 43.1337H65.8425V42.4534H66.5606V43.1337H66.8252C67.5433 43.1337 68.0724 43.3604 68.4882 43.7762C68.8661 44.1541 69.0551 44.6833 69.0551 45.288ZM68.2992 45.288C68.2992 44.3053 67.8079 43.814 66.7874 43.814H66.5606V46.762H66.7874C67.8079 46.762 68.2992 46.2707 68.2992 45.288ZM65.8425 46.762V43.814H65.6535C64.6331 43.814 64.1039 44.3053 64.1039 45.288C64.1039 46.2707 64.6331 46.762 65.6535 46.762H65.8425ZM78.2772 48.3116H77.5968V44.2297L73.9685 48.425V42.5667H74.6866V46.6486L78.2772 42.4534V48.3116ZM86.6677 48.3116H85.9496V45.8927H85.6472L83.9464 48.3116H83.0772L84.8913 45.8171C84.4756 45.7415 84.1354 45.5904 83.8709 45.3258C83.6063 45.0612 83.4929 44.7211 83.4929 44.3053C83.4929 43.7762 83.6441 43.3604 83.9842 43.0581C84.3622 42.7179 84.8535 42.5667 85.4583 42.5667H86.6677V48.3116ZM85.9496 45.288V43.2471H85.5339C84.6268 43.2471 84.211 43.5872 84.211 44.2297C84.211 44.9478 84.6646 45.288 85.6472 45.288H85.9496Z"
					fill="#2B2A29"></path>
			</svg>